<svg xmlns="http://www.w3.org/2000/svg" viewBox="0 0 400 300">
    <defs><linearGradient id="bg" x1="0" y1="0" x2="1" y2="1"><stop offset="0%" stop-color="#1a1a2e"/><stop offset="100%" stop-color="#22d3ee15"/></linearGradient></defs>
    <rect width="400" height="300" fill="url(#bg)"/>
    <polygon points="50,32 66,41 66,59 50,68 34,59 34,41" fill="none" stroke="#67e8f9" stroke-width="1" opacity="0.3324548874795291"/><polygon points="115,32 131,41 131,59 115,68 99,59 99,41" fill="none" stroke="#67e8f9" stroke-width="1" opacity="0.17329696735759623"/><polygon points="180,32 196,41 196,59 180,68 164,59 164,41" fill="none" stroke="#67e8f9" stroke-width="1" opacity="0.1656771462660017"/><polygon points="245,32 261,41 261,59 245,68 229,59 229,41" fill="none" stroke="#67e8f9" stroke-width="1" opacity="0.2920698341299852"/><polygon points="310,32 326,41 326,59 310,68 294,59 294,41" fill="none" stroke="#67e8f9" stroke-width="1" opacity="0.36135951125758803"/><polygon points="375,32 391,41 391,59 375,68 359,59 359,41" fill="none" stroke="#67e8f9" stroke-width="1" opacity="0.3622691143637603"/><polygon points="82,87 98,96 98,114 82,123 66,114 66,96" fill="none" stroke="#67e8f9" stroke-width="1" opacity="0.20170730382153243"/><polygon points="147,87 163,96 163,114 147,123 131,114 131,96" fill="none" stroke="#67e8f9" stroke-width="1" opacity="0.29718718769636643"/><polygon points="212,87 228,96 228,114 212,123 196,114 196,96" fill="none" stroke="#67e8f9" stroke-width="1" opacity="0.16732691237181954"/><polygon points="277,87 293,96 293,114 277,123 261,114 261,96" fill="none" stroke="#67e8f9" stroke-width="1" opacity="0.34149795955959905"/><polygon points="342,87 358,96 358,114 342,123 326,114 326,96" fill="none" stroke="#67e8f9" stroke-width="1" opacity="0.32880771713640045"/><polygon points="407,87 423,96 423,114 407,123 391,114 391,96" fill="none" stroke="#67e8f9" stroke-width="1" opacity="0.15495515648235844"/><polygon points="50,142 66,151 66,169 50,178 34,169 34,151" fill="none" stroke="#67e8f9" stroke-width="1" opacity="0.2953376457614393"/><polygon points="115,142 131,151 131,169 115,178 99,169 99,151" fill="none" stroke="#67e8f9" stroke-width="1" opacity="0.24364082828812308"/><polygon points="180,142 196,151 196,169 180,178 164,169 164,151" fill="none" stroke="#67e8f9" stroke-width="1" opacity="0.2655413013621376"/><polygon points="245,142 261,151 261,169 245,178 229,169 229,151" fill="none" stroke="#67e8f9" stroke-width="1" opacity="0.23108009336395272"/><polygon points="310,142 326,151 326,169 310,178 294,169 294,151" fill="none" stroke="#67e8f9" stroke-width="1" opacity="0.34743603275601076"/><polygon points="375,142 391,151 391,169 375,178 359,169 359,151" fill="none" stroke="#67e8f9" stroke-width="1" opacity="0.26738571164902514"/><polygon points="82,197 98,206 98,224 82,233 66,224 66,206" fill="none" stroke="#67e8f9" stroke-width="1" opacity="0.2925643605049971"/><polygon points="147,197 163,206 163,224 147,233 131,224 131,206" fill="none" stroke="#67e8f9" stroke-width="1" opacity="0.21619884562963573"/><polygon points="212,197 228,206 228,224 212,233 196,224 196,206" fill="none" stroke="#67e8f9" stroke-width="1" opacity="0.2381136814204329"/><polygon points="277,197 293,206 293,224 277,233 261,224 261,206" fill="none" stroke="#67e8f9" stroke-width="1" opacity="0.2109984443898186"/><polygon points="342,197 358,206 358,224 342,233 326,224 326,206" fill="none" stroke="#67e8f9" stroke-width="1" opacity="0.3986891032769738"/><polygon points="407,197 423,206 423,224 407,233 391,224 391,206" fill="none" stroke="#67e8f9" stroke-width="1" opacity="0.3977640879130926"/>
    <text x="200" y="260" text-anchor="middle" fill="#e8ffff" font-family="system-ui,sans-serif" font-size="13" font-weight="600" letter-spacing="1">Gasket Die Cutting Tool</text>
  </svg>