<svg xmlns="http://www.w3.org/2000/svg" viewBox="0 0 400 300">
    <defs><linearGradient id="bg" x1="0" y1="0" x2="1" y2="1"><stop offset="0%" stop-color="#1a2e2e"/><stop offset="100%" stop-color="#ec489908"/></linearGradient></defs>
    <rect width="400" height="300" fill="url(#bg)"/>
    <line x1="68" y1="80" x2="92" y2="80" stroke="#f472b6" stroke-width="2" opacity="0.3"/><line x1="80" y1="68" x2="80" y2="92" stroke="#f472b6" stroke-width="2" opacity="0.3"/><circle cx="80" cy="80" r="4" fill="#f472b6" opacity="0.2"/><line x1="68" y1="140" x2="92" y2="140" stroke="#f472b6" stroke-width="2" opacity="0.3"/><line x1="80" y1="128" x2="80" y2="152" stroke="#f472b6" stroke-width="2" opacity="0.3"/><circle cx="80" cy="140" r="4" fill="#f472b6" opacity="0.2"/><line x1="68" y1="200" x2="92" y2="200" stroke="#f472b6" stroke-width="2" opacity="0.3"/><line x1="80" y1="188" x2="80" y2="212" stroke="#f472b6" stroke-width="2" opacity="0.3"/><circle cx="80" cy="200" r="4" fill="#f472b6" opacity="0.2"/><line x1="148" y1="80" x2="172" y2="80" stroke="#f472b6" stroke-width="2" opacity="0.3"/><line x1="160" y1="68" x2="160" y2="92" stroke="#f472b6" stroke-width="2" opacity="0.3"/><circle cx="160" cy="80" r="4" fill="#f472b6" opacity="0.2"/><line x1="148" y1="140" x2="172" y2="140" stroke="#f472b6" stroke-width="2" opacity="0.3"/><line x1="160" y1="128" x2="160" y2="152" stroke="#f472b6" stroke-width="2" opacity="0.3"/><circle cx="160" cy="140" r="4" fill="#f472b6" opacity="0.2"/><line x1="148" y1="200" x2="172" y2="200" stroke="#f472b6" stroke-width="2" opacity="0.3"/><line x1="160" y1="188" x2="160" y2="212" stroke="#f472b6" stroke-width="2" opacity="0.3"/><circle cx="160" cy="200" r="4" fill="#f472b6" opacity="0.2"/><line x1="228" y1="80" x2="252" y2="80" stroke="#f472b6" stroke-width="2" opacity="0.3"/><line x1="240" y1="68" x2="240" y2="92" stroke="#f472b6" stroke-width="2" opacity="0.3"/><circle cx="240" cy="80" r="4" fill="#f472b6" opacity="0.2"/><line x1="228" y1="140" x2="252" y2="140" stroke="#f472b6" stroke-width="2" opacity="0.3"/><line x1="240" y1="128" x2="240" y2="152" stroke="#f472b6" stroke-width="2" opacity="0.3"/><circle cx="240" cy="140" r="4" fill="#f472b6" opacity="0.2"/><line x1="228" y1="200" x2="252" y2="200" stroke="#f472b6" stroke-width="2" opacity="0.3"/><line x1="240" y1="188" x2="240" y2="212" stroke="#f472b6" stroke-width="2" opacity="0.3"/><circle cx="240" cy="200" r="4" fill="#f472b6" opacity="0.2"/><line x1="308" y1="80" x2="332" y2="80" stroke="#f472b6" stroke-width="2" opacity="0.3"/><line x1="320" y1="68" x2="320" y2="92" stroke="#f472b6" stroke-width="2" opacity="0.3"/><circle cx="320" cy="80" r="4" fill="#f472b6" opacity="0.2"/><line x1="308" y1="140" x2="332" y2="140" stroke="#f472b6" stroke-width="2" opacity="0.3"/><line x1="320" y1="128" x2="320" y2="152" stroke="#f472b6" stroke-width="2" opacity="0.3"/><circle cx="320" cy="140" r="4" fill="#f472b6" opacity="0.2"/><line x1="308" y1="200" x2="332" y2="200" stroke="#f472b6" stroke-width="2" opacity="0.3"/><line x1="320" y1="188" x2="320" y2="212" stroke="#f472b6" stroke-width="2" opacity="0.3"/><circle cx="320" cy="200" r="4" fill="#f472b6" opacity="0.2"/>
    <text x="200" y="260" text-anchor="middle" fill="#ffe8f5" font-family="system-ui,sans-serif" font-size="13" font-weight="600" letter-spacing="1">Linear Guide Rail Mounting Plate</text>
  </svg>