<svg xmlns="http://www.w3.org/2000/svg" viewBox="0 0 400 300">
    <defs><radialGradient id="bg" cx="50%" cy="50%"><stop offset="0%" stop-color="#06b6d422"/><stop offset="100%" stop-color="#1a2a2a"/></radialGradient></defs>
    <rect width="400" height="300" fill="url(#bg)"/>
    <line x1="250" y1="160" x2="275" y2="160" stroke="#22d3ee" stroke-width="4" stroke-linecap="round"/><line x1="243.30127018922195" y1="185" x2="264.9519052838329" y2="197.5" stroke="#22d3ee" stroke-width="4" stroke-linecap="round"/><line x1="225" y1="203.30127018922192" x2="237.5" y2="224.9519052838329" stroke="#22d3ee" stroke-width="4" stroke-linecap="round"/><line x1="200" y1="210" x2="200" y2="235" stroke="#22d3ee" stroke-width="4" stroke-linecap="round"/><line x1="175" y1="203.30127018922195" x2="162.5" y2="224.9519052838329" stroke="#22d3ee" stroke-width="4" stroke-linecap="round"/><line x1="156.69872981077805" y1="185" x2="135.0480947161671" y2="197.5" stroke="#22d3ee" stroke-width="4" stroke-linecap="round"/><line x1="150" y1="160" x2="125" y2="160" stroke="#22d3ee" stroke-width="4" stroke-linecap="round"/><line x1="156.69872981077808" y1="135" x2="135.0480947161671" y2="122.5" stroke="#22d3ee" stroke-width="4" stroke-linecap="round"/><line x1="174.99999999999997" y1="116.69872981077808" x2="162.49999999999997" y2="95.04809471616711" stroke="#22d3ee" stroke-width="4" stroke-linecap="round"/><line x1="200" y1="110" x2="200" y2="85" stroke="#22d3ee" stroke-width="4" stroke-linecap="round"/><line x1="225" y1="116.69872981077808" x2="237.5" y2="95.0480947161671" stroke="#22d3ee" stroke-width="4" stroke-linecap="round"/><line x1="243.30127018922192" y1="134.99999999999997" x2="264.95190528383284" y2="122.49999999999997" stroke="#22d3ee" stroke-width="4" stroke-linecap="round"/>
    <circle cx="200" cy="160" r="60" fill="none" stroke="#22d3ee" stroke-width="3"/>
    <circle cx="200" cy="160" r="40" fill="none" stroke="#22d3ee" stroke-width="2" stroke-dasharray="8 4"/>
    <circle cx="200" cy="160" r="15" fill="#22d3ee" opacity="0.3"/>
    <circle cx="200" cy="160" r="8" fill="#22d3ee"/>
    <text x="200" y="260" text-anchor="middle" fill="#e8ffff" font-family="system-ui,sans-serif" font-size="13" font-weight="600" letter-spacing="1">Counterbalanced Torque Arm System</text>
  </svg>